<?xml version="1.0" standalone="no"?>
<!DOCTYPE svg PUBLIC "-//W3C//DTD SVG 20010904//EN"
 "http://www.w3.org/TR/2001/REC-SVG-20010904/DTD/svg10.dtd">
<svg version="1.0" xmlns="http://www.w3.org/2000/svg"
 width="500.000000pt" height="500.000000pt" viewBox="0 0 500.000000 500.000000"
 preserveAspectRatio="xMidYMid meet">
<metadata>
Created by potrace 1.14, written by Peter Selinger 2001-2017
</metadata>
<g transform="translate(0.000000,500.000000) scale(0.100000,-0.100000)"
fill="#000000" stroke="none">
<path d="M1490 4540 c-25 -33 -175 -236 -285 -385 -146 -198 -246 -333 -351
-475 -55 -74 -113 -154 -128 -177 l-28 -42 144 -198 c79 -109 157 -217 174
-240 16 -23 143 -199 283 -392 185 -255 258 -348 266 -341 7 6 39 46 71 90 65
89 339 459 351 475 10 13 174 233 331 445 l123 165 871 0 872 0 96 130 c78
104 402 544 466 630 8 11 46 63 85 115 96 129 159 217 159 222 0 2 -783 4
-1740 4 l-1740 0 -20 -26z"/>
<path d="M3378 2783 c-36 -48 -202 -272 -368 -498 -167 -225 -337 -454 -377
-507 l-74 -98 -872 0 -872 -1 -250 -340 c-137 -187 -255 -346 -260 -352 -6 -7
-35 -46 -65 -87 -30 -41 -60 -82 -67 -90 -37 -48 -163 -221 -163 -225 0 -3
784 -5 1743 -5 l1742 1 85 116 c83 113 166 226 530 717 96 130 179 245 183
255 7 14 -27 68 -164 257 -95 132 -177 244 -182 249 -7 9 -458 631 -492 678
-11 16 -19 9 -77 -70z"/>
</g>
</svg>
