<svg width="200" height="40" xmlns="http://www.w3.org/2000/svg" class="text" fill="#0069ff">
    <g>
        <title>Layer 1</title>
        <path d="m19.098,35l0,-6.196c6.615,0 11.7,-6.501 9.177,-13.419a9.227,9.227 0 0 0 -5.545,-5.513c-6.959,-2.509 -13.497,2.585 -13.497,9.124l-6.233,0c0,-10.454 10.171,-18.627 21.183,-15.206c4.818,1.483 8.642,5.322 10.172,10.112c3.441,10.986 -4.742,21.098 -15.257,21.098z" id="svg_1"/>
        <path d="m19.097,28.842l-6.195,0l0,-6.159l6.195,0l0,6.159zm-6.194,4.751l-4.78,0l0,-4.751l4.78,0l0,4.751zm-4.779,-4.751l-4.015,0l0,-3.954l3.977,0l0,3.954l0.038,0z" id="svg_2"/>
        <path d="m60.242,12.305c-1.835,-1.254 -4.129,-1.9 -6.806,-1.9l-5.812,0l0,18.399l5.812,0c2.677,0 4.971,-0.685 6.806,-2.015c0.994,-0.722 1.797,-1.711 2.333,-2.965c0.535,-1.255 0.841,-2.699 0.841,-4.334c0,-1.635 -0.268,-3.079 -0.841,-4.296c-0.536,-1.254 -1.3,-2.242 -2.333,-2.889zm-9.213,1.179l1.835,0c2.027,0 3.709,0.38 4.971,1.178c1.415,0.837 2.141,2.471 2.141,4.79c0,2.395 -0.726,4.068 -2.141,4.98c-1.224,0.798 -2.868,1.217 -4.933,1.217l-1.835,0l0,-12.165l-0.038,0zm16.479,-3.346c-0.574,0 -1.032,0.191 -1.415,0.571c-0.382,0.38 -0.612,0.836 -0.612,1.406s0.192,1.027 0.574,1.445c0.382,0.38 0.879,0.57 1.453,0.57c0.574,0 1.032,-0.19 1.453,-0.57c0.382,-0.38 0.574,-0.875 0.574,-1.445c0,-0.57 -0.192,-1.026 -0.574,-1.406c-0.421,-0.342 -0.918,-0.571 -1.453,-0.571zm-1.683,5.664l3.288,0l0,12.963l-3.288,0l0,-12.963zm15.177,1.103c-0.994,-0.874 -2.103,-1.369 -3.288,-1.369c-1.797,0 -3.327,0.609 -4.474,1.863c-1.185,1.217 -1.759,2.775 -1.759,4.638c0,1.825 0.574,3.383 1.721,4.638c1.147,1.216 2.677,1.824 4.474,1.824c1.262,0 2.332,-0.342 3.25,-1.026l0,0.304c0,1.064 -0.306,1.901 -0.841,2.471c-0.574,0.57 -1.377,0.874 -2.333,0.874c-1.529,0 -2.447,-0.608 -3.632,-2.128l-2.218,2.128l0.076,0.076c0.498,0.685 1.224,1.331 2.18,1.939c0.956,0.608 2.218,0.95 3.633,0.95c1.95,0 3.517,-0.608 4.664,-1.786c1.148,-1.179 1.759,-2.775 1.759,-4.714l0,-11.784l-3.212,0l0,1.102zm-0.878,7.641c-0.574,0.646 -1.3,0.95 -2.256,0.95c-0.956,0 -1.683,-0.304 -2.218,-0.95c-0.574,-0.646 -0.841,-1.483 -0.841,-2.547s0.267,-1.901 0.841,-2.547c0.574,-0.646 1.3,-0.95 2.218,-0.95c0.956,0 1.682,0.304 2.256,0.95c0.573,0.646 0.841,1.521 0.841,2.547c0.038,1.064 -0.268,1.901 -0.841,2.547zm6.883,-8.744l3.288,0l0,12.963l-3.288,0l0,-12.963zm1.685,-5.664c-0.574,0 -1.033,0.191 -1.415,0.571c-0.382,0.38 -0.612,0.836 -0.612,1.406s0.191,1.027 0.574,1.445c0.382,0.38 0.879,0.57 1.453,0.57c0.573,0 1.032,-0.19 1.453,-0.57c0.382,-0.38 0.573,-0.875 0.573,-1.445c0,-0.57 -0.191,-1.026 -0.573,-1.406c-0.421,-0.342 -0.88,-0.571 -1.453,-0.571zm8.793,2.167l-3.212,0l0,3.498l-1.874,0l0,2.965l1.874,0l0,5.36c0,1.672 0.344,2.889 0.994,3.573c0.689,0.684 1.874,1.064 3.518,1.064c0.535,0 1.071,0 1.606,-0.038l0.153,0l0,-2.965l-1.109,0.076c-0.765,0 -1.3,-0.152 -1.568,-0.418c-0.267,-0.266 -0.382,-0.836 -0.382,-1.71l0,-4.904l3.059,0l0,-2.965l-3.059,0l0,-3.536zm18.43,-1.939l3.288,0l0,18.4l-3.288,0l0,-18.4zm36.364,13.762c-0.574,0.646 -1.186,1.216 -1.645,1.52c-0.458,0.304 -1.032,0.418 -1.682,0.418c-0.956,0 -1.759,-0.342 -2.371,-1.064c-0.612,-0.722 -0.956,-1.635 -0.956,-2.737s0.306,-2.015 0.918,-2.737c0.612,-0.722 1.415,-1.064 2.371,-1.064c1.07,0 2.179,0.646 3.135,1.786l2.18,-2.053c-1.415,-1.824 -3.212,-2.661 -5.354,-2.661c-1.797,0 -3.364,0.647 -4.626,1.939c-1.262,1.293 -1.912,2.889 -1.912,4.828c0,1.939 0.65,3.573 1.912,4.828c1.262,1.292 2.829,1.939 4.626,1.939c2.371,0 4.283,-1.027 5.583,-2.89l-2.179,-2.052zm13.459,-6.501c-0.459,-0.646 -1.109,-1.178 -1.874,-1.558c-0.765,-0.38 -1.683,-0.57 -2.715,-0.57c-1.835,0 -3.327,0.684 -4.435,1.976c-1.109,1.331 -1.645,2.965 -1.645,4.866c0,1.977 0.612,3.574 1.797,4.828c1.186,1.216 2.792,1.863 4.742,1.863c2.218,0 4.015,-0.875 5.391,-2.623l0.077,-0.076l-2.141,-2.053c-0.192,0.228 -0.498,0.494 -0.727,0.76c-0.306,0.304 -0.612,0.532 -0.956,0.684a3.856,3.856 0 0 1 -1.644,0.381c-0.918,0 -1.644,-0.266 -2.218,-0.799c-0.535,-0.494 -0.841,-1.14 -0.918,-1.976l8.68,0l0.039,-1.179c0,-0.836 -0.115,-1.635 -0.345,-2.395c-0.305,-0.798 -0.65,-1.482 -1.108,-2.129zm-7.15,3.042a3.28,3.28 0 0 1 0.841,-1.521c0.459,-0.418 1.032,-0.646 1.721,-0.646c0.803,0 1.414,0.228 1.835,0.684c0.382,0.418 0.612,0.912 0.65,1.521l-5.047,0l0,-0.038zm19.731,-3.878c-0.994,-0.836 -2.37,-1.255 -4.091,-1.255c-1.109,0 -2.103,0.229 -3.021,0.685a5.297,5.297 0 0 0 -2.218,2.09l0.039,0.038l2.103,2.015c0.879,-1.368 1.835,-1.862 3.097,-1.862c0.688,0 1.262,0.19 1.682,0.532c0.421,0.342 0.65,0.798 0.65,1.406l0,0.647c-0.803,-0.229 -1.606,-0.381 -2.409,-0.381c-1.644,0 -2.944,0.381 -3.938,1.141c-0.994,0.76 -1.491,1.863 -1.491,3.231c0,1.217 0.42,2.205 1.262,2.927c0.841,0.722 1.911,1.065 3.173,1.065s2.409,-0.495 3.48,-1.369l0,1.064l3.212,0l0,-8.325c-0.039,-1.596 -0.536,-2.813 -1.53,-3.649zm-5.813,7.032c0.383,-0.266 0.88,-0.38 1.568,-0.38a7.31,7.31 0 0 1 2.485,0.457l0,1.254c-0.726,0.646 -1.682,0.988 -2.829,0.988c-0.574,0 -0.994,-0.114 -1.3,-0.38c-0.306,-0.228 -0.459,-0.532 -0.459,-0.95c0,-0.418 0.153,-0.76 0.535,-0.989zm19.922,-6.804c-0.918,-1.026 -2.18,-1.52 -3.824,-1.52c-1.3,0 -2.37,0.38 -3.135,1.102l0,-0.798l-3.212,0l0,12.963l3.288,0l0,-7.147c0,-0.988 0.23,-1.749 0.689,-2.319c0.458,-0.57 1.108,-0.836 1.95,-0.836c0.726,0 1.3,0.228 1.72,0.722c0.421,0.494 0.612,1.178 0.612,2.053l0,7.489l3.288,0l0,-7.489c0,-1.787 -0.458,-3.193 -1.376,-4.22zm-80.64,-0.228c-0.994,-0.836 -2.371,-1.255 -4.091,-1.255c-1.109,0 -2.103,0.229 -3.021,0.685a5.291,5.291 0 0 0 -2.218,2.09l0.038,0.038l2.103,2.015c0.88,-1.368 1.836,-1.862 3.098,-1.862c0.688,0 1.261,0.19 1.682,0.532c0.421,0.342 0.65,0.798 0.65,1.406l0,0.647c-0.803,-0.229 -1.606,-0.381 -2.409,-0.381c-1.644,0 -2.944,0.381 -3.938,1.141c-0.994,0.76 -1.492,1.863 -1.492,3.231c0,1.217 0.421,2.205 1.262,2.927s1.912,1.065 3.174,1.065s2.409,-0.495 3.48,-1.369l0,1.064l3.211,0l0,-8.325c-0.038,-1.596 -0.535,-2.813 -1.529,-3.649zm-5.813,7.032c0.383,-0.266 0.88,-0.38 1.568,-0.38a7.31,7.31 0 0 1 2.485,0.457l0,1.254c-0.726,0.646 -1.682,0.988 -2.829,0.988c-0.574,0 -0.994,-0.114 -1.3,-0.38c-0.306,-0.228 -0.459,-0.532 -0.459,-0.95c0,-0.418 0.153,-0.76 0.535,-0.989zm25.082,5.209c-5.238,0 -9.521,-4.258 -9.521,-9.466c0,-5.208 4.283,-9.466 9.521,-9.466c5.239,0 9.521,4.258 9.521,9.466c0,5.208 -4.244,9.466 -9.521,9.466zm-0.001,-15.624c-3.403,0 -6.156,2.737 -6.156,6.12s2.753,6.121 6.156,6.121c3.403,0 6.156,-2.738 6.156,-6.121c0,-3.383 -2.753,-6.12 -6.156,-6.12z" id="svg_3"/>
    </g>

</svg>
