<svg version="1.1" id="envoyer-logo-on-white-svg" xmlns="http://www.w3.org/2000/svg" xmlns:xlink="http://www.w3.org/1999/xlink" x="0px" y="0px" viewBox="0 0 220.4 56.3" enable-background="new 0 0 220.4 56.3" xml:space="preserve"><g><path fill="#F56857" d="M59.5,9c0.6-0.3,1.2-0.5,1.8-0.6c0.6-0.1,1-0.1,1.4-0.1s2.8,0.1,7.3,0.2c4.5,0.2,7.4,0.3,8.7,0.5v4.6H64.4
		c-1.2,0-1.9,0.3-2.2,0.9c-0.2,0.4-0.3,1.1-0.3,1.8v7l14.7,0.5v4.6l-14.7,0.5v7c0,1.3,0.5,2.1,1.3,2.4c0.4,0.1,1,0.1,1.6,0.1h13.9
		v4.5c-1,0.1-4.9,0.4-11.6,0.7l-3.3,0.1c-0.3,0-0.6,0-0.9,0s-0.8,0-1.3-0.1c-0.5,0-1.1-0.2-1.8-0.5c-0.7-0.3-1.3-0.6-1.8-1.1
		c-1.2-1.1-1.7-2.8-1.7-5V15.1C56.3,12.1,57.4,10,59.5,9z"></path> <path fill="#F56857" d="M97.9,26c0-2.6-1.1-3.9-3.4-3.9c-1.5,0-2.7,0.2-3.7,0.6c-1,0.4-2.2,1-3.6,1.8v18.8h-5.6V17.8H86l1.2,2.8
		c0.1-0.1,0.4-0.3,1-0.7c0.6-0.4,1.2-0.8,1.8-1.1c0.6-0.3,1.4-0.7,2.5-1c1.1-0.3,2.1-0.5,3.3-0.5c2.7,0,4.6,0.8,5.9,2.4
		c1.2,1.6,1.9,3.7,1.9,6.2v17.3h-5.6V26z"></path> <path fill="#F56857" d="M104.3,17.8h6l6.4,18.6l6.6-18.6h6l-9.6,25.5h-6L104.3,17.8z"></path> <path fill="#F56857" d="M132.2,40.7c-0.9-1-1.5-2.3-1.9-3.9c-0.4-1.6-0.6-3.8-0.6-6.7c0-2.9,0.4-5.3,1.1-7.2
		c0.8-1.9,1.9-3.3,3.6-4.1c1.6-0.8,3.9-1.2,6.8-1.2c4.4,0,7.4,1,9,2.9c1.6,1.9,2.5,5.3,2.5,10.2c0,4.9-0.8,8.3-2.5,10.1
		c-1.6,1.8-4.6,2.7-9,2.7c-2.2,0-4-0.2-5.5-0.7C134.3,42.4,133.1,41.7,132.2,40.7z M135.8,25.2c-0.2,0.7-0.4,1.4-0.4,2.4
		c-0.1,0.9-0.1,2-0.1,3.3c0,1.3,0,2.4,0.1,3.2c0.1,0.9,0.3,1.6,0.5,2.2c0.2,0.6,0.5,1,0.8,1.4c0.3,0.4,0.7,0.6,1.2,0.8
		c0.8,0.3,1.8,0.4,3,0.4c1.2,0,2.1,0,2.6-0.1c0.5-0.1,1.1-0.3,1.6-0.5c0.5-0.3,0.9-0.7,1.2-1.3c0.5-1.3,0.8-2.9,0.8-4.9
		s0-3.5-0.1-4.4c-0.1-0.9-0.2-1.7-0.4-2.4c-0.2-0.7-0.4-1.2-0.7-1.5c-0.3-0.4-0.6-0.6-1.1-0.8c-0.8-0.3-1.8-0.5-3-0.5
		c-1.2,0-2.1,0-2.6,0.1c-0.5,0.1-1,0.2-1.5,0.4c-0.5,0.2-0.9,0.5-1.2,0.9C136.3,24,136.1,24.6,135.8,25.2z"></path> <path fill="#F56857" d="M153,17.8h5.9l5,18.6c0.2,0.7,0.4,1.2,0.8,1.4c0.3,0.2,0.6,0.4,0.8,0.4c0.2,0.1,0.4,0.1,0.5,0.1
		s0.4,0,0.7,0l5.9-20.4h5.9l-9.7,33.6l-3.6,4.9h-3.8l3.9-13c-3.5,0-5.8-2-7-6L153,17.8z"></path> <path fill="#F56857" d="M181.1,20.8c1-1.3,2.2-2.1,3.6-2.5c1.4-0.4,3.1-0.6,4.9-0.6s3.1,0,4,0.1c0.8,0.1,1.7,0.2,2.6,0.4
		c0.9,0.2,1.6,0.5,2.1,0.9c0.5,0.4,1,1,1.4,1.6c0.8,1.2,1.2,3.2,1.2,6.1c0,4.1-2.3,6.2-6.9,6.2h-9.1c0,2.5,0.4,4.1,1.2,4.8
		c0.4,0.4,1,0.7,1.6,0.8c0.6,0.1,2.3,0.2,5.1,0.2c2.8,0,5.3-0.2,7.6-0.5v3.9c-2.6,0.9-6.8,1.3-12.7,1.3c-3.2,0-5.4-1-6.6-2.9
		c-1.2-1.9-1.8-5.3-1.8-10.1C179.3,25.7,179.9,22.5,181.1,20.8z M195.2,26.6c0-1.9-0.3-3.1-0.8-3.6c-0.5-0.5-1.8-0.8-3.8-0.8
		c-2.5,0-4,0.3-4.6,0.9c-0.7,0.7-1.1,1.6-1.2,2.6c-0.1,1-0.1,2-0.1,3h8C194.4,28.7,195.2,28,195.2,26.6z"></path> <path fill="#F56857" d="M211.6,19.3c0.6-0.4,1.5-0.8,2.5-1.2c1.1-0.4,2.2-0.6,3.6-0.6c1.3,0,2.2,0.1,2.7,0.3v5.4
		c-0.8-0.1-2-0.2-3.6-0.2c-1.6,0-3,0.2-4.1,0.6c-1.1,0.4-2.3,1.1-3.5,2.2v17.4h-5.6V17.8h4.5l1.1,3.2
		C210.2,20.3,211,19.7,211.6,19.3z"></path></g> <path fill-rule="evenodd" clip-rule="evenodd" fill="#EF977C" d="M23.9,48.8c1.7-0.2,3.5-0.6,5.2-1.1l0.1-16.2
	c-0.1-0.1-0.2-0.2-0.2-0.3c-0.6-0.6-1.2-1.1-1.9-1.5c-0.6,0.7-1.2,1.4-1.8,1.9c-0.4,0.3-0.8,0.5-1.2,0.8L23.9,48.8L23.9,48.8z
	 M13.2,47.6c1.7,0.6,3.4,0.9,5.1,1.1l0.1-16.5c-0.4-0.2-0.8-0.5-1.2-0.8c-0.7-0.5-1.3-1.2-1.8-1.9c-0.7,0.4-1.3,0.9-1.9,1.5
	c-0.1,0.1-0.2,0.2-0.3,0.3l0,8.1h0V47.6z"></path> <path fill-rule="evenodd" clip-rule="evenodd" fill="#E5572C" d="M21.3,0c-4.2,0-7.7,6.9-7.7,15.4c0,0.8,0,1.6,0.1,2.4
	c-3.3,2.4-5.5,6.2-5.5,10.6c0,1.9,0.4,3.6,1.1,5.2c1.3-3,3.8-5.5,6.9-6.8c1.3,2.5,3.1,4,5.1,4c2,0,3.8-1.5,5.2-4
	c3,1.3,5.5,3.8,6.8,6.8c0.7-1.6,1.1-3.4,1.1-5.2c0-4.4-2.1-8.3-5.4-10.6c0.1-0.8,0.1-1.6,0.1-2.4C28.9,7,25.5,0,21.3,0L21.3,0z
	 M21.3,10c1.9,0,3.4,1.5,3.4,3.4c0,1.9-1.5,3.4-3.4,3.4c-1.9,0-3.4-1.5-3.4-3.4C17.9,11.5,19.4,10,21.3,10z"></path> <path fill-rule="evenodd" clip-rule="evenodd" fill="#F56857" d="M10.7,40.6c-2.6-2.3-4.4-5.4-5.1-9C3.7,31.4,2,31.2,0.5,31
	c0.7,6.7,4.6,12.4,10.2,15.7V40.6L10.7,40.6z M5.7,25.2c0.3-1.4,0.9-2.8,1.5-4.1c0.2-0.4,0.3-0.8,0.5-1.1c0.9-1.8,2.2-3.4,3.8-4.7
	l0-0.2l0,0c0-0.5,0-1,0-1.3c0-1.3,0.1-2.5,0.2-3.7C5.8,13.2,1.5,19,0.6,25.8C2.1,25.6,3.8,25.4,5.7,25.2L5.7,25.2z M31.7,46.6
	c5.5-3.2,9.4-9,10.2-15.7c-1.5,0.2-3.2,0.5-5.1,0.6c-0.7,3.6-2.5,6.7-5.1,9V46.6L31.7,46.6z M41.8,25.8c-0.9-6.8-5.1-12.5-11-15.6
	c0.1,1.2,0.2,2.4,0.2,3.7c0,0.3,0,0.8,0,1.3l0,0l0,0.2c1.5,1.3,2.8,2.9,3.7,4.7c0.2,0.4,0.4,0.7,0.5,1.1c0.7,1.2,1.2,2.6,1.5,4
	C38.5,25.4,40.2,25.6,41.8,25.8z"></path> <g></g> <g></g> <g></g> <g></g> <g></g> <g></g> <g></g> <g></g> <g></g> <g></g> <g></g> <g></g> <g></g> <g></g> <g></g></svg>
