<svg width="652" height="170" xmlns="http://www.w3.org/2000/svg" xml:space="preserve" version="1.1">
 <g>
  <title>Layer 1</title>
     <path id="svg_1" fill="#24292E" d="m388.1,124.9l-0.2,0c0.1,0 0.1,0.1 0.2,0.1l0.1,0l-0.1,-0.1zm0,0.1c-0.8,0 -2.9,0.4 -5.1,0.4c-6.9,0 -9.3,-3.2 -9.3,-7.4l0,-27.8l14.1,0c0.8,0 1.4,-0.7 1.4,-1.7l0,-15.1c0,-0.8 -0.7,-1.5 -1.4,-1.5l-14.1,0l0,-18.8c0,-0.7 -0.5,-1.1 -1.3,-1.1l-19.2,0c-0.8,0 -1.2,0.5 -1.2,1.1l0,19.3c0,0 -9.7,2.4 -10.3,2.5c-0.7,0.2 -1.1,0.8 -1.1,1.5l0,12.1c0,1 0.7,1.7 1.5,1.7l9.8,0l0,29.2c0,21.7 15.1,23.9 25.4,23.9c4.7,0 10.4,-1.5 11.3,-2c0.5,-0.2 0.8,-0.8 0.8,-1.4l0,-13.3c0,-0.8 -0.5,-1.4 -1.3,-1.6l0,0zm210.6,-19.5c0,-16.1 -6.5,-18.2 -13.3,-17.5c-5.3,0.3 -9.6,3 -9.6,3l0,31.3c0,0 4.3,3 10.8,3.2c9.1,0.2 12.1,-3.1 12.1,-20l0,0zm21.6,-1.4c0,30.5 -9.9,39.2 -27.1,39.2c-14.6,0 -22.4,-7.4 -22.4,-7.4s-0.3,4.1 -0.8,4.6c-0.3,0.5 -0.7,0.7 -1.3,0.7l-13.1,0c-0.9,0 -1.7,-0.7 -1.7,-1.5l0.2,-98.7c0,-0.8 0.7,-1.5 1.5,-1.5l18.9,0c0.8,0 1.5,0.7 1.5,1.5l0,33.5c0,0 7.3,-4.7 18,-4.7l-0.1,-0.2c10.6,0 26.4,4 26.4,34.5l0,0zm-77.5,-32.1l-18.7,0c-1,0 -1.5,0.7 -1.5,1.7l0,48.3c0,0 -4.9,3.4 -11.6,3.4c-6.6,0 -8.6,-3 -8.6,-9.7l0,-42.2c0,-0.8 -0.7,-1.5 -1.5,-1.5l-19,0c-0.8,0 -1.5,0.7 -1.5,1.5l0,45.5c0,19.5 10.9,24.4 25.9,24.4c12.4,0 22.4,-6.8 22.4,-6.8s0.5,3.5 0.7,4c0.2,0.4 0.8,0.8 1.4,0.8l11.9,0c1,0 1.5,-0.7 1.5,-1.5l0.2,-66.4c0.1,-0.8 -0.7,-1.5 -1.6,-1.5l0,0zm-210.6,-0.1l-18.9,0c-0.8,0 -1.5,0.8 -1.5,1.8l0,65.2c0,1.8 1.2,2.4 2.7,2.4l17.1,0c1.8,0 2.2,-0.8 2.2,-2.4l0,-65.5c-0.1,-0.8 -0.8,-1.5 -1.6,-1.5l0,0zm-9.4,-30.1c-6.8,0 -12.3,5.4 -12.3,12.3c0,6.8 5.4,12.3 12.3,12.3c6.7,0 12.1,-5.4 12.1,-12.3c0,-6.8 -5.4,-12.3 -12.1,-12.3l0,0zm146.6,-2.2l-18.8,0c-0.8,0 -1.5,0.7 -1.5,1.5l0,36.3l-29.4,0l0,-36.3c0,-0.8 -0.7,-1.5 -1.5,-1.5l-18.9,0c-0.8,0 -1.5,0.7 -1.5,1.5l0,98.7c0,0.8 0.8,1.5 1.5,1.5l18.9,0c0.8,0 1.5,-0.7 1.5,-1.5l0,-42.2l29.4,0l-0.2,42.2c0,0.8 0.7,1.5 1.5,1.5l18.9,0c0.8,0 1.5,-0.7 1.5,-1.5l0,-98.7c0.1,-0.8 -0.6,-1.5 -1.4,-1.5l0,0zm-167.7,43.7l0,51c0,0.3 -0.1,1 -0.5,1.1c0,0 -11.1,7.9 -29.4,7.9c-22.1,0 -48.4,-6.9 -48.4,-52.6c0,-45.7 22.9,-55.1 45.3,-55c19.4,0 27.2,4.4 28.4,5.2c0.3,0.5 0.5,0.8 0.5,1.2l-3.6,15.9c0,0.8 -0.8,1.8 -1.8,1.5c-3.2,-1 -8,-2.9 -19.3,-2.9c-13.1,0 -27.1,3.7 -27.1,33.2c0,29.4 13.3,32.9 22.9,32.9c8.2,0 11.1,-1 11.1,-1l0,-20.4l-13.1,0c-1,0 -1.7,-0.7 -1.7,-1.5l0,-16.4c0,-0.8 0.7,-1.5 1.7,-1.5l33.3,0c1,-0.1 1.7,0.6 1.7,1.4l0,0zm0,0" class="st0"/>
     <path id="svg_2" fill="#24292E" clip-rule="evenodd" fill-rule="evenodd" d="m96.4,10.4c-42.1,0 -76.2,34.1 -76.2,76.2c0,33.7 21.8,62.2 52.1,72.3c3.8,0.6 5.3,-1.6 5.3,-3.6c0,-1.8 -0.1,-7.8 -0.1,-14.2c-19.1,3.5 -24.1,-4.7 -25.6,-8.9c-0.9,-2.2 -4.6,-9 -7.8,-10.8c-2.7,-1.4 -6.5,-5 -0.1,-5.1c6,-0.1 10.3,5.5 11.7,7.8c6.9,11.5 17.8,8.3 22.2,6.3c0.7,-4.9 2.7,-8.3 4.9,-10.2c-16.9,-1.9 -34.7,-8.5 -34.7,-37.6c0,-8.3 3,-15.2 7.8,-20.5c-0.8,-1.9 -3.4,-9.7 0.8,-20.2c0,0 6.4,-2 21,7.8c6.1,-1.7 12.6,-2.6 19,-2.6c6.5,0 12.9,0.9 19,2.6c14.6,-9.9 20.9,-7.8 20.9,-7.8c4.2,10.5 1.5,18.3 0.8,20.2c4.9,5.3 7.8,12.1 7.8,20.5c0,29.2 -17.8,35.7 -34.8,37.6c2.8,2.4 5.2,6.9 5.2,14.1c0,10.2 -0.1,18.4 -0.1,20.9c0,2 1.4,4.4 5.2,3.6c31,-10.5 51.9,-39.6 51.9,-72.3c0,-42 -34.1,-76.1 -76.2,-76.1l0,0zm0,0" class="st1"/>
 </g>

</svg>
